<svg id="Layer_1" data-name="Layer 1" xmlns="http://www.w3.org/2000/svg" viewBox="0 0 1024 1024"><defs><style>.cls-1{fill:#fca800;}.cls-2{font-size:77.3455px;fill:#fca100;font-family:Impact;letter-spacing:0.10799em;}.cls-3{letter-spacing:0.09286em;}</style></defs><rect width="1024" height="1024"/><path d="M535.12305,685.87012A296.74388,296.74388,0,0,1,239.0752,388.43555,296.049,296.049,0,1,1,744.47461,598.73828,293.41377,293.41377,0,0,1,535.12305,685.87012Z"/><path class="cls-1" d="M535.1228,100c158.532,0,287.04737,129.13684,287.04737,288.43518S693.65479,676.87036,535.1228,676.87036c-158.53174,0-287.04712-129.13684-287.04712-288.43518S376.59106,100,535.1228,100m0-18a303.45861,303.45861,0,0,0-215.73144,89.78357,306.98721,306.98721,0,0,0,96.959,498.986,303.90467,303.90467,0,0,0,334.50415-65.68274,306.98724,306.98724,0,0,0-96.95923-498.98608A301.97,301.97,0,0,0,535.1228,82Z"/><path class="cls-1" d="M492.98633,523.70508l-87.126,66.35058,16.6709,81.01856-60.749,54.10742L315.69141,608.48633,180.03906,563.66992l66.6084-56.52148,91.24414,16.42773,72.5127-71.96679L177.18555,380.08984l75.4873-64.47949L527.67578,331.0166c63.14746-62.86328,117.34863-109.16015,161.20215-137.6875,36.25879-23.58594,65.11719-35.05176,88.22266-35.05176,20.69824,0,33.75976,9.67676,39.08105,18.7334,4.78906,8.124,6.27734,17.79688,4.40625,28.71973-2.16211,12.61914-8.833,26.79687-20.39551,43.3418-28.25,40.4248-86.15527,95.06445-172.19824,162.499l10.03613,258.4541-69.2207,61.27051Z"/><path d="M777.09985,182.27747c14.33911-.00025,18.38892,6.89184,18.38892,6.89184,3.76269,6.38184,20.30542,46.35071-191.9541,211.041l10.07275,259.38183-34.33618,30.39222-74.91577-205.1056L379.31006,580.10693l16.92456,82.24988L371.48,684.40454,333.887,589.2218,228.17773,554.29773,253.541,532.77551l92.3916,16.63489L455.75439,440.41418,226.00146,369.9574l34.9397-29.84668,276.11426,15.469c147.198-147.94934,212.544-173.30188,240.04443-173.30224m.00074-48.00013h-.00122c-27.896.00049-61.03418,12.73584-101.3086,38.93421-43.43213,28.25232-96.32812,73.02905-157.42529,133.246L263.62622,292.18591l-19.2229-1.0769L229.7644,303.614l-34.93969,29.84656L128.37427,390.225l83.5542,25.623,153.12475,46.95777-35.2019,34.93737-67.80493-12.208-22.29175-4.01355-17.27026,14.6549-25.36329,21.52222-65.22,55.343,81.219,26.833,84.37573,27.876L326.83569,702.037l25.24659,63.92236,51.32251-45.71057,24.75463-22.04785,20.66846-18.40857-5.57837-27.10974-10.83984-52.67957,49.20654-37.47314,52.56836,143.92248,24.16309,66.15442L611.08521,725.927l34.33618-30.39221,17.03247-15.07605-.88282-22.72913L652.4502,422.85583C735.09009,357.3877,791.365,303.60205,819.865,262.81921c13.63184-19.50683,21.606-36.85522,24.37817-53.03686,2.81641-16.43958.25513-31.9978-7.40649-44.99243a58.61859,58.61859,0,0,0-20.042-19.96631c-11.39209-6.99805-24.74707-10.54627-39.69409-10.54627Z"/><rect class="cls-1" x="62.0371" y="767.69389" width="918.9629" height="18"/><text class="cls-2" transform="translate(62 881.6543) scale(0.96944 1)">EXCELLENT CY<tspan class="cls-3" x="506.22815" y="0">L</tspan><tspan x="542.83011" y="0">ONE TOURS</tspan></text></svg>