<svg id="Layer_1" data-name="Layer 1" xmlns="http://www.w3.org/2000/svg" xmlns:xlink="http://www.w3.org/1999/xlink" viewBox="0 0 7326 2112"><defs><style>.cls-1,.cls-3{fill:#fff;}.cls-2{fill:url(#linear-gradient);}.cls-3,.cls-4{stroke:#000;}.cls-10,.cls-11,.cls-12,.cls-3,.cls-4{stroke-miterlimit:10;}.cls-3{stroke-width:8px;}.cls-10,.cls-11,.cls-12,.cls-4{fill:none;}.cls-5{fill:#55beff;}.cls-6{fill:#ffda00;}.cls-7{fill:#ffd788;}.cls-8{fill:#db8c00;}.cls-9{fill:#fca800;}.cls-10,.cls-11,.cls-12{stroke:#fca800;}.cls-10{stroke-width:33px;}.cls-11{stroke-width:12px;}.cls-12{stroke-width:6px;}.cls-13,.cls-16{font-size:77.3455px;letter-spacing:0.10799em;}.cls-13,.cls-17{fill:#fca100;}.cls-13,.cls-16,.cls-17{font-family:Impact;}.cls-14{letter-spacing:0.09286em;}.cls-15{fill:#fffefd;}.cls-17{font-size:50px;letter-spacing:0.10801em;}.cls-18{letter-spacing:0.09288em;}</style><linearGradient id="linear-gradient" x1="505.46553" y1="153.83077" x2="513.12511" y2="573.57545" gradientUnits="userSpaceOnUse"><stop offset="0" stop-color="#fbe2ab"/><stop offset="0.16588" stop-color="#fad29b"/><stop offset="0.49117" stop-color="#f7a771"/><stop offset="0.94061" stop-color="#f2642d"/><stop offset="1" stop-color="#f15a24"/></linearGradient></defs><path class="cls-1" d="M512,929.5A417.61005,417.61005,0,0,1,349.49023,127.30908,417.60843,417.60843,0,0,1,674.50977,896.69141,414.88346,414.88346,0,0,1,512,929.5Z" transform="translate(0)"/><path d="M512,95A417.11022,417.11022,0,0,1,674.31488,896.23047,417.1082,417.1082,0,0,1,349.68512,127.76955,414.3867,414.3867,0,0,1,512,95m0-1C281.145,94,94,281.145,94,512S281.145,930,512,930,930,742.855,930,512,742.855,94,512,94Z" transform="translate(0)"/><path d="M644.49278,546.49891a1.5009,1.5009,0,0,0,0-3,1.5009,1.5009,0,0,0,0,3Z" transform="translate(0)"/><path class="cls-2" d="M929.61176,530q.37939-8.95368.38824-18C930,281.145,742.855,94,512,94S94,281.145,94,512q0,9.047.38824,18Z" transform="translate(0)"/><rect x="436" y="80" width="3" height="5" rx="0.7766" transform="translate(4.24459 184.9805) rotate(-23.98687)"/><polygon points="467.072 545.361 387.204 545.361 235.787 814 340.171 814 490.367 545.361 467.072 545.361"/><polygon points="571.604 545.361 919 545.361 866.732 604.462 791.398 604.462 790.842 731.617 719.302 814 719.302 605.205 621.354 605.205 571.604 545.361"/><polygon points="178.5 545.361 433.081 814 534 814 276.552 545.361 178.5 545.361"/><path class="cls-3" d="M549.8789,550.36118S632.778,628.57631,655.097,688.01981c0,1.5643,52.609,71.95792-12.7537,109.50119,1.59421-1.56431-91.65028,45.36477-108.79655-12.51442.78015,0-31.49418-78.21514-21.9289-115.7584,0,0,10.88813-13.41306,7.03828,30.83673,1.86556,2.46295-.66143,11.39944,4.12121,20.78526,0-1.56431,7.97106-74.02147,8.76817-86.28627,1.59421.49925-3.98554-6.00759-8.76817-10.7005,1.59421,1.56431-6.37686-3.1286-1.59422-6.25721,0,0,15.94213,6.25721,17.53634,3.12861l12.75371-31.28605s0-6.25721-6.37685-10.95012l22.319,7.82151s-23.91319-25.02884-47.82638-21.90024c-9.56528,1.56431-15.94213-7.82151-15.94213-7.82151s-11.15949-15.643,4.78264-14.07872S549.8789,550.36118,549.8789,550.36118Z" transform="translate(0)"/><line class="cls-4" x1="94.50017" y1="530.49995" x2="929.5007" y2="529.49995"/><path class="cls-5" d="M929.66992,503.34412c.02527,1.20874.04932,2.41778.06421,3.629C929.71985,505.76172,929.69446,504.553,929.66992,503.34412Z" transform="translate(0)"/><path class="cls-5" d="M93.89325,501.69543,94,501.42554S165,475,284,493s234.80853,23,264.40424,19C578,508,630.2262,499.01379,675.1131,500.0069s142.9082,13.28546,142.9082,13.28546,55.52344,9.09552,111.29413-20.69623q.1095,2.39538.193,4.79755-.30019-8.74274-.95019-17.39368H94.97357Q94.158,490.77384,93.89325,501.69543Z" transform="translate(0)"/><path class="cls-5" d="M929.51306,497.53851q.07911,2.29359.13385,4.59326Q929.59363,499.8317,929.51306,497.53851Z" transform="translate(0)"/><path class="cls-5" d="M93.79858,506.83612q.03205-2.56229.09424-5.11725Q93.83111,504.27393,93.79858,506.83612Z" transform="translate(0)"/><path d="M198.10638,530.26613S175.5,490.5,180.5,434.5s12-66,12-66-43.1661,78.29839-12.722,161.76613C179.94407,530.96774,198.10638,530.26613,198.10638,530.26613Z" transform="translate(0)"/><circle class="cls-6" cx="753.5" cy="360.5" r="90.5"/><path d="M191.78672,368.97286,184.74468,386.5l16.85106,20.97849A70.38855,70.38855,0,0,0,205,386l2,24,25,27-2-28-10-8,9.17021,1.98643S225,384,214,374C215,375,191.78672,368.97286,191.78672,368.97286Z" transform="translate(0)"/><path d="M192.06616,368.9983l7.95328,17.1329,26.82766,2.08132a70.38832,70.38832,0,0,0-13.32391-17.18684L232.385,386l36.79579.26466-21.77728-17.713-12.67752,1.8112,7.72637-5.32371s-16.69356-9.95992-31.51346-8.7892C212.35246,356.20578,192.06616,368.9983,192.06616,368.9983Z" transform="translate(0)"/><path d="M193.68085,371.5S183,358,185,335c0-1,6,8,6,8s-2-20,10-30c1,0,0,9.89362,0,9.89362S206,313,225,312c1,0-8,11-8,22,0,0-13-3-17,9,0,0,7-5,15-4,0,0-9.17194,8.21277-10.086,18.10638C205.086,356.89362,193.68085,371.5,193.68085,371.5Z" transform="translate(0)"/><path d="M199.52255,368.0086s-16.47538-15.52273-38.4721-16.59244c0,0,10.66979,4.0194,14.18274,9.37283,0,0-13.73365-8.0161-18.57914-7.62354.45262-.26727-11.33941-1.22421-17.68143,10.73323-.47517.95963,9.192-3.65321,14.07609-2.18824l-14.6539,8.19243s-7.22919,10.83729-6.27067,21.97646c-.09388.99559,26.01612-9.60007,26.01612-9.60007s-4.14339-7.05332.31351-12.84389c-.27127.61042.43751,4.87921,2.147,8.05372C161.50252,378.57855,181.75283,363.22683,199.52255,368.0086Z" transform="translate(0)"/><circle cx="188" cy="370" r="4"/><ellipse cx="188" cy="375.5" rx="4" ry="3.5"/><circle cx="180" cy="369" r="5"/><path class="cls-7" d="M929.31546,492.59613c-55.77069,29.79175-111.29413,20.69623-111.29413,20.69623S720,501,675.11313,500.0069,578,508,548.40426,512C518.80856,516,403,511,284,493s-190,8.42554-190,8.42554l-.10675.27Q93.76895,506.833,93.766,512q0,9.047.38824,18H929.37771q.37939-8.95368.38825-18Q929.766,502.24342,929.31546,492.59613Z" transform="translate(0)"/><polygon points="1510.896 592.479 1431.027 592.479 1279.61 861.118 1383.995 861.118 1534.191 592.479 1510.896 592.479"/><polygon points="1615.427 592.479 1962.824 592.479 1910.556 651.579 1835.222 651.579 1834.666 778.735 1763.125 861.118 1763.125 652.322 1665.177 652.322 1615.427 592.479"/><polygon points="1222.324 592.479 1476.904 861.118 1577.824 861.118 1320.375 592.479 1222.324 592.479"/><path class="cls-3" d="M1593.70243,597.47883s82.89907,78.21513,105.218,137.65863c0,1.5643,52.609,71.95792-12.7537,109.50118,1.59421-1.5643-91.65028,45.36478-108.79655-12.51442.78015,0-31.49418-78.21513-21.9289-115.75839,0,0,10.88813-13.41307,7.03828,30.83673,1.86556,2.46294-.66143,11.39944,4.12121,20.78525,0-1.5643,7.97106-74.02146,8.76817-86.28626,1.59421.49924-3.98554-6.00759-8.76817-10.7005,1.59421,1.5643-6.37686-3.1286-1.59422-6.25721,0,0,15.94213,6.25721,17.53634,3.12861l12.75371-31.28606s0-6.25721-6.37686-10.95011l22.319,7.82151s-23.91319-25.02884-47.82638-21.90024c-9.56528,1.5643-15.94213-7.82151-15.94213-7.82151s-11.15949-15.643,4.78264-14.07873S1593.70243,597.47883,1593.70243,597.47883Z" transform="translate(0)"/><path d="M1623.732,360.10935l5.03554,129.0456-17.16531,15.1205L1574.15052,402.233l-62.51237,47.37721,8.4609,40.92027-12.37531,10.969-18.79344-47.35461-52.84595-17.37515,12.67956-10.70756,46.18823,8.27607,54.90186-54.22693-114.85758-35.0532,17.467-14.84894,138.03448,7.696c111.95529-111.9855,129.19539-82.79127,129.19539-82.79127h0C1721.57431,258.289,1729.84422,278.1739,1623.732,360.10935Z" transform="translate(0)"/><path d="M1742.491,557.52694s22.60639-39.76613,17.60639-95.76613-12-66-12-66,43.1661,78.2984,12.722,161.76613C1760.65333,558.22855,1742.491,557.52694,1742.491,557.52694Z" transform="translate(0)"/><path d="M1748.81067,396.23367l7.04205,17.52714-16.85107,20.97849a70.38873,70.38873,0,0,1-3.40425-21.47849l-2,24-25,27,2-28,10-8-9.17022,1.98643s4.17022-18.98643,15.17022-28.98643C1725.5974,402.26081,1748.81067,396.23367,1748.81067,396.23367Z" transform="translate(0)"/><path d="M1748.53124,396.25911,1740.578,413.392l-26.82766,2.08132a70.38873,70.38873,0,0,1,13.32392-17.18684l-18.86186,14.97432-36.79578.26466,21.77727-17.713,12.67752,1.8112L1698.145,392.3s16.69357-9.95992,31.51347-8.78919C1728.24493,383.46659,1748.53124,396.25911,1748.53124,396.25911Z" transform="translate(0)"/><path d="M1746.91655,398.76081s10.68085-13.5,8.68085-36.5c0-1-6,8-6,8s2-20-10-30c-1,0,0,9.89362,0,9.89362s-5-9.89362-24-10.89362c-1,0,8,11,8,22,0,0,13-3,17,9,0,0-7-5-15-4,0,0,9.17194,8.21277,10.086,18.10639C1735.51143,384.15443,1746.91655,398.76081,1746.91655,398.76081Z" transform="translate(0)"/><path d="M1741.07484,395.26941s16.47539-15.52273,38.47211-16.59244c0,0-10.66979,4.0194-14.18274,9.37283,0,0,13.73365-8.0161,18.57914-7.62354-.45263-.26727,11.3394-1.2242,17.68143,10.73323.47517.95963-9.19206-3.65321-14.0761-2.18824l14.65391,8.19243s7.22919,10.83729,6.27067,21.97646c.09388.99559-26.01612-9.60007-26.01612-9.60007s4.14339-7.05331-.31352-12.84389c.27127.61042-.4375,4.87922-2.147,8.05372C1779.09488,405.83936,1758.84457,390.48764,1741.07484,395.26941Z" transform="translate(0)"/><circle cx="1752.5974" cy="397.26081" r="4"/><ellipse cx="1752.5974" cy="402.76081" rx="4" ry="3.5"/><circle cx="1760.5974" cy="396.26081" r="5"/><path d="M1890,562H1321.61025s-103.01451-20.25969-64.31238-132.12984C1259.70213,432.12984,1255.78723,529,1333.89362,530S1890,562,1890,562Z" transform="translate(0)"/><path d="M2766.032,321.29a3.98382,3.98382,0,0,1,1.08814-1.86932c-.06665-.00293-.1333-.00922-.2-.01178-.3855.73028-.75171,1.37933-1.08155,1.93115Z" transform="translate(0)"/><path d="M2600,97c-230.855,0-418,187.145-418,418,0,230.855,187.145,418,418,418s418-187.145,418-418C3018,284.145,2830.855,97,2600,97ZM2469.75366,255.24762l138.03443,7.696c111.95556-111.98553,129.19555-82.79126,129.19555-82.79126,1.88111,3.17511,10.15088,23.06-95.96118,104.99549l5.0354,129.04559-17.16528,15.12048-37.45166-102.04248-62.51245,47.3772,8.46093,40.92029-12.37524,10.969-18.79346-47.35461-52.84594-17.37512,12.67944-10.70758,46.18823,8.27606,54.90186-54.22693-114.85742-35.05316Zm-195.16528,99.661c2.404,2.2597-1.51074,99.12982,76.5957,100.12982,49.96192.63965,263.54688,13.55432,410.98535,22.77863,5.67383-12.11981,19.2002-46.42047,15.21827-91.01782-1.89185-21.18921-4.06983-35.78852-6.04688-45.75629l-15.04883,18.7348a70.54087,70.54087,0,0,1-3.39526-20.96161l-.05249.00409-1.95654,23.479-25,27,2-28,10-8-9.17017,1.98645a77.28307,77.28307,0,0,1,5.34009-15.008l-3.01709.23407a70.387,70.387,0,0,1,13.324-17.18683l-18.86181,14.97431-36.79566.26464,21.7771-17.71295,12.67749,1.81122-7.72632-5.32373s16.69361-9.9599,31.51343-8.78918c-.845-.02643,6.06494,4.53454,11.76025,8.20782-2.89062-3.70264-5.823-7.46014-5.73535-7.35144-.91406-9.89362-10.08593-18.10638-10.08593-18.10638,8-1,15,4,15,4-4-12-17-9-17-9,0-11-9-22-8-22,19,1,24,10.89361,24,10.89361s-1-9.89361,0-9.89361c12,10,10,30,10,30s6-9,6-8a60.32339,60.32339,0,0,1-2.80323,24.69574c6.8125-3.87983,16.13574-7.76325,26.75293-8.27955,0,0-10.66992,4.01935-14.18286,9.37281,0,0,13.73364-8.01612,18.5791-7.62354-.45263-.26727,11.3396-1.22418,17.6814,10.73322.47534.95965-9.1919-3.6532-14.07593-2.18824l14.65381,8.19245s7.22925,10.83728,6.27075,21.97644c.09375.9956-26.01611-9.6-26.01611-9.6s4.14331-7.05334-.31348-12.84393c.27124.61047-.4375,4.87921-2.14721,8.05377-.48243.58289-6.50562-3.53955-14.72217-6.76782a4.96827,4.96827,0,0,1-8.9773.79022,3.98987,3.98987,0,0,1-.99829,1.42181,3.3024,3.3024,0,0,1,1.29859,2.56666,3.69565,3.69565,0,0,1-3.53248,3.4588c10.19117,23.56573,30.751,83.76739,9.04371,147.639,74.26245,4.66346,127.89135,8.14142,127.89135,8.14142H2338.90063S2235.88623,466.77875,2274.58838,354.90863Zm219.606,431.2475L2435.76,724.49493l-34.47461,61.6612H2296.90063l73.58082-130.54456-130.86768-138.0943h98.052l69.67359,72.70227,40.97851-72.70227H2551.4812l-78.78,140.90509,122.4126,127.73377Zm209.26269-16.479c1.59424-1.56433-91.65015,45.36475-108.79639-12.51446.78,0-31.49414-78.21509-21.92895-115.75836,0,0,10.88818-13.41309,7.03833,30.83673,1.86548,2.46295-.66162,11.39941,4.12109,20.78522,0-1.56427,7.97119-74.02143,8.76831-86.28626,1.594.49927-3.98559-6.00757-8.76831-10.7005,1.59424,1.56433-6.37671-3.1286-1.59423-6.2572,0,0,15.94213,6.2572,17.53637,3.1286l12.75366-31.286s0-6.25727-6.3767-10.95014l22.31884,7.82154s-23.91308-25.02887-47.82641-21.90027c-9.56519,1.56433-15.9419-7.82153-15.9419-7.82153s-11.15967-15.643,4.78247-14.07868c15.94214,1.56427,41.44947,7.82147,41.44947,7.82147s82.89917,78.21515,105.21826,137.65863C2716.21094,661.74023,2768.81982,732.13385,2703.457,769.67712Zm149.05518-193.05926-.55616,127.1557-71.54028,82.38257V577.3609h-97.948l-49.75024-59.84363h347.39624l-52.26758,59.10059Z" transform="translate(0)"/><path d="M2765.76318,321.464l-.01123.01868c.05542.10577.11524.22094.18262.35113l.002-.019Q2765.84241,321.61871,2765.76318,321.464Z" transform="translate(0)"/><path d="M2770.12134,331.27863c-.07886.004-.15357.02063-.23364.02063a4.56873,4.56873,0,0,1-.77832-.06867c.69165,2.61963,1.44555,5.85053,2.23144,9.81238l1.80225-2.24371Z" transform="translate(0)"/><path d="M2765.68384,321.59424a24.61366,24.61366,0,0,1-1.47681,2.205s-.51831-.66358-1.32764-1.70032c-6.33544,1.61383-19.75732,4.966-18.99169,4.20032a45.61376,45.61376,0,0,0-9.83008,13.97845l18.78662-1.45746.04346-.521c0,.17474.00756.34326.009.5169l4.97143-.38568Z" transform="translate(0)"/><path d="M2765.3877,320.79926s.06762.12335.18286.33966l.03076.01953C2765.46289,320.90753,2765.3877,320.79926,2765.3877,320.79926Z" transform="translate(0)"/><path d="M2765.68384,321.59424l.06811-.11157-.00879-.01636Z" transform="translate(0)"/><path d="M2765.79688,321.35089l-.04346.09381.00976.01929c.02588-.04273.04932-.08.07544-.1239Z" transform="translate(0)"/><path d="M2765.79688,321.35089l.02465-.05334-.22021-.1391c.03442.06219.07226.13275.11426.21338Z" transform="translate(0)"/><path d="M2765.57056,321.13892c-.419-.26471-1.34693-.8523-2.572-1.63263-.65235.05731-1.30323.1405-1.95289.244.69263.88732,1.32105,1.69213,1.83374,2.34863,1.302-.33167,2.29932-.58832,2.8169-.72211C2765.648,321.28473,2765.60791,321.20892,2765.57056,321.13892Z" transform="translate(0)"/><path d="M2760.9021,318.16687c-.69605-.44592-1.43237-.919-2.19312-1.40979.51465.6593,1.02686,1.31531,1.52149,1.949Q2760.54138,318.45237,2760.9021,318.16687Z" transform="translate(0)"/><path d="M2765.69629,321.37683l.04687.08948.01026-.02161-.03784-.07287Z" transform="translate(0)"/><path d="M2758.36523,320.30786a26.05047,26.05047,0,0,1,2.68042-.55755c-.26367-.33765-.53686-.6875-.81518-1.04426C2759.02148,319.692,2758.36523,320.30786,2758.36523,320.30786Z" transform="translate(0)"/><path d="M2762.99854,319.50629a31.23334,31.23334,0,0,1,3.92163-.09735,50.9238,50.9238,0,0,0,3.1643-7.41394,73.73586,73.73586,0,0,0-9.18237,6.17187C2761.66284,318.65436,2762.36865,319.105,2762.99854,319.50629Z" transform="translate(0)"/><path d="M2766.05981,322.0766c.35889.69873.85035,1.67914,1.448,2.92395.02466-.016.0459-.03546.0708-.051l-1.47754-3.67742-.06909.01788a3.99125,3.99125,0,0,0-.09546.52478C2765.97607,321.89685,2766.0166,321.983,2766.05981,322.0766Z" transform="translate(0)"/><path d="M2766.05981,322.0766c-.0437-.08539-.08544-.16583-.12524-.2428a3.66278,3.66278,0,0,0,1.252,3.3988c.03028-.02453.06446-.04547.09571-.06915C2766.79028,323.75928,2766.375,322.75958,2766.05981,322.0766Z" transform="translate(0)"/><path d="M2773.09985,319.93573a3.97293,3.97293,0,0,0-5.97973-.515,39.06324,39.06324,0,0,1,5.91137.735C2773.04932,320.08026,2773.07861,320.00983,2773.09985,319.93573Z" transform="translate(0)"/><path d="M2770.12134,331.27863c.07886-.00409.15625-.01258.23388-.02057-.83081-1.921-1.59252-3.59833-2.25683-5.01459Z" transform="translate(0)"/><path d="M2767.18652,325.2326a3.30266,3.30266,0,0,0-1.29882,2.56666,3.6565,3.6565,0,0,0,3.22168,3.43133c-.648-2.45465-1.24122-4.37451-1.7544-5.85895C2767.29883,325.32526,2767.24,325.28192,2767.18652,325.2326Z" transform="translate(0)"/><path d="M2768.09839,326.24347l-.19751-.49194c-.01563-.009-.03223-.01654-.04736-.0257C2767.93506,325.898,2768.01367,326.06274,2768.09839,326.24347Z" transform="translate(0)"/><path d="M2767.57861,324.94958l.32227.80195a3.92256,3.92256,0,0,0,4.68823-.51893,4.29677,4.29677,0,0,0-2.70141-.93334A4.36657,4.36657,0,0,0,2767.57861,324.94958Z" transform="translate(0)"/><path d="M2767.28223,325.16345c.02417.06891.04834.13739.07275.20819a3.972,3.972,0,0,0,.49854.35419c-.11866-.24994-.23438-.49353-.34571-.72528C2767.42969,325.05164,2767.356,325.10754,2767.28223,325.16345Z" transform="translate(0)"/><path d="M2777.8877,316.29926a4.98482,4.98482,0,0,0-4.78785,3.63647c.064.08691.12378.17523.18091.26733a56.77665,56.77665,0,0,1,9.28394,2.81751,4.96035,4.96035,0,0,0-4.677-6.72131Z" transform="translate(0)"/><path d="M2773.28076,320.20306c-.08276-.017-.1665-.03082-.24927-.0473a4.78319,4.78319,0,0,0,.55591,3.655,3.93589,3.93589,0,0,0-.30664-3.60773Z" transform="translate(0)"/><path class="cls-8" d="M3646,931.5a417.61025,417.61025,0,0,1-162.50977-802.19092,417.60843,417.60843,0,0,1,325.01954,769.38233A414.88346,414.88346,0,0,1,3646,931.5Z" transform="translate(0)"/><path d="M3646,97a417.11025,417.11025,0,0,1,162.31494,801.23047,417.10822,417.10822,0,0,1-324.62988-768.46091A414.38646,414.38646,0,0,1,3646,97m0-1c-230.855,0-418,187.145-418,418s187.145,418,418,418,418-187.145,418-418S3876.855,96,3646,96Z" transform="translate(0)"/><path d="M3644,94c-230.855,0-418,187.145-418,418,0,230.855,187.145,418,418,418s418-187.145,418-418C4062,281.145,3874.855,94,3644,94ZM3513.75366,252.24762l138.03443,7.696c111.95556-111.98553,129.19555-82.79126,129.19555-82.79126,1.88111,3.17511,10.15088,23.06-95.96118,104.99549l5.0354,129.04559-17.16528,15.12048-37.45166-102.04248-62.51245,47.3772,8.46093,40.92029-12.37524,10.969-18.79346-47.35461-52.84594-17.37512,12.67944-10.70758,46.18823,8.27606,54.90186-54.22693-114.85742-35.05316Zm-195.16528,99.661c2.404,2.2597-1.51074,99.12982,76.5957,100.12982,49.96192.63965,263.54688,13.55432,410.98535,22.77863,5.67383-12.11981,19.2002-46.42047,15.21827-91.01782-1.89185-21.18921-4.06983-35.78852-6.04688-45.75629l-15.04883,18.7348a70.54087,70.54087,0,0,1-3.39526-20.96161l-.05249.00409-1.95654,23.479-25,27,2-28,10-8-9.17017,1.98645a77.28307,77.28307,0,0,1,5.34009-15.008l-3.01709.23407a70.387,70.387,0,0,1,13.324-17.18683l-18.86181,14.97431-36.79566.26464,21.7771-17.71295,12.67749,1.81122-7.72632-5.32373s16.69361-9.9599,31.51343-8.78918c-.845-.02643,6.06494,4.53454,11.76025,8.20782-2.89062-3.70264-5.823-7.46014-5.73535-7.35144-.91406-9.89362-10.08593-18.10638-10.08593-18.10638,8-1,15,4,15,4-4-12-17-9-17-9,0-11-9-22-8-22,19,1,24,10.89361,24,10.89361s-1-9.89361,0-9.89361c12,10,10,30,10,30s6-9,6-8a60.32339,60.32339,0,0,1-2.80323,24.69574c6.8125-3.87983,16.13574-7.76325,26.75293-8.27955,0,0-10.66992,4.01935-14.18286,9.37281,0,0,13.73364-8.01612,18.5791-7.62354-.45263-.26727,11.3396-1.22418,17.6814,10.73322.47534.95965-9.1919-3.6532-14.07593-2.18824l14.65381,8.19245s7.22925,10.83728,6.27075,21.97644c.09375.9956-26.01611-9.6-26.01611-9.6s4.14331-7.05334-.31348-12.84393c.27124.61047-.4375,4.87921-2.14721,8.05377-.48243.58289-6.50562-3.53955-14.72217-6.76782a4.96827,4.96827,0,0,1-8.9773.79022,3.98987,3.98987,0,0,1-.99829,1.42181,3.3024,3.3024,0,0,1,1.29859,2.56666,3.69565,3.69565,0,0,1-3.53248,3.4588c10.19117,23.56573,30.751,83.76739,9.04371,147.639,74.26245,4.66346,127.89135,8.14142,127.89135,8.14142H3382.90063S3279.88623,463.77875,3318.58838,351.90863Zm219.606,431.2475L3479.76,721.49493l-34.47461,61.6612H3340.90063l73.58082-130.54456-130.86768-138.0943h98.052l69.67359,72.70227,40.97851-72.70227H3595.4812l-78.78,140.90509,122.4126,127.73377Zm209.26269-16.479c1.59424-1.56433-91.65015,45.36475-108.79639-12.51446.78,0-31.49414-78.21509-21.92895-115.75836,0,0,10.88818-13.41309,7.03833,30.83673,1.86548,2.46295-.66162,11.39941,4.12109,20.78522,0-1.56427,7.97119-74.02143,8.76831-86.28626,1.594.49927-3.98559-6.00757-8.76831-10.7005,1.59424,1.56433-6.37671-3.1286-1.59423-6.2572,0,0,15.94213,6.2572,17.53637,3.1286l12.75366-31.286s0-6.25727-6.3767-10.95014l22.31884,7.82154s-23.91308-25.02887-47.82641-21.90027c-9.56519,1.56433-15.9419-7.82153-15.9419-7.82153s-11.15967-15.643,4.78247-14.07868c15.94214,1.56427,41.44947,7.82147,41.44947,7.82147s82.89917,78.21515,105.21826,137.65863C3760.21094,658.74023,3812.81982,729.13385,3747.457,766.67712Zm149.05518-193.05926-.55616,127.1557-71.54028,82.38257V574.3609h-97.948l-49.75024-59.84363h347.39624l-52.26758,59.10059Z" transform="translate(0)"/><path class="cls-8" d="M4688.10645,933.5a417.61025,417.61025,0,0,1-162.50977-802.19092,417.60843,417.60843,0,0,1,325.01953,769.38233A414.88692,414.88692,0,0,1,4688.10645,933.5Z" transform="translate(0)"/><path d="M4688.10645,99a417.11015,417.11015,0,0,1,162.31494,801.23047A417.10822,417.10822,0,0,1,4525.7915,131.76956,414.38737,414.38737,0,0,1,4688.10645,99m0-1c-230.855,0-418,187.145-418,418s187.145,418,418,418,418-187.145,418-418-187.145-418-418-418Z" transform="translate(0)"/><path d="M4686.10638,96c-230.855,0-418,187.145-418,418,0,230.855,187.145,418,418,418s418-187.145,418-418C5104.10638,283.145,4916.96136,96,4686.10638,96ZM4555.86005,254.24762l138.03442,7.696C4805.85,149.95807,4823.09,179.15234,4823.09,179.15234c1.8811,3.17511,10.15087,23.06-95.96119,104.99549l5.0354,129.04559L4714.999,428.3139,4677.5473,326.27142l-62.51245,47.3772,8.46094,40.92029-12.37525,10.969-18.79345-47.35461-52.84595-17.37512,12.67944-10.70758,46.18823,8.27606,54.90186-54.22693-114.85742-35.05316Zm-195.16529,99.661c2.40405,2.2597-1.51074,99.12982,76.59571,100.12982,49.96191.63965,263.54687,13.55432,410.98535,22.77863,5.67382-12.11981,19.20019-46.42047,15.21826-91.01782-1.89185-21.18921-4.06983-35.78852-6.04688-45.75629l-15.04882,18.7348a70.54068,70.54068,0,0,1-3.39527-20.96161l-.05249.00409-1.95654,23.479-25,27,2-28,10-8-9.17017,1.98645a77.28307,77.28307,0,0,1,5.34009-15.008l-3.01709.23407a70.38725,70.38725,0,0,1,13.324-17.18683l-18.86181,14.97431-36.79566.26464,21.7771-17.71295,12.67749,1.81122-7.72631-5.32373s16.6936-9.9599,31.51342-8.78918c-.845-.02643,6.06494,4.53454,11.76026,8.20782-2.89063-3.70264-5.823-7.46014-5.73535-7.35144-.91407-9.89362-10.08594-18.10638-10.08594-18.10638,8-1,15,4,15,4-4-12-17-9-17-9,0-11-9-22-8-22,19,1,24,10.89361,24,10.89361s-1-9.89361,0-9.89361c12,10,10,30,10,30s6-9,6-8a60.32341,60.32341,0,0,1-2.80322,24.69574c6.8125-3.87983,16.13574-7.76325,26.75293-8.27955,0,0-10.66993,4.01935-14.18287,9.37281,0,0,13.73365-8.01612,18.57911-7.62354-.45264-.26727,11.3396-1.22418,17.68139,10.73322.47534.95965-9.19189-3.6532-14.07593-2.18824l14.65381,8.19245s7.22925,10.83728,6.27075,21.97644c.09375.9956-26.01611-9.6-26.01611-9.6s4.14331-7.05334-.31347-12.84393c.27124.61047-.4375,4.87921-2.14722,8.05377-.48242.58289-6.50562-3.53955-14.72217-6.76782a4.96826,4.96826,0,0,1-8.97729.79022,3.98989,3.98989,0,0,1-.9983,1.42181,3.3024,3.3024,0,0,1,1.29859,2.56666,3.69565,3.69565,0,0,1-3.53247,3.4588c10.19116,23.56573,30.751,83.76739,9.0437,147.639,74.26245,4.66346,127.89136,8.14142,127.89136,8.14142H4425.007S4321.99261,465.77875,4360.69476,353.90863Zm219.606,431.2475-58.43433-61.6612-34.47461,61.6612H4383.007l73.58081-130.54456-130.86768-138.0943h98.052l69.67359,72.70227,40.97851-72.70227h103.16333l-78.78,140.90509,122.4126,127.73377Zm209.26269-16.479c1.59424-1.56433-91.65014,45.36475-108.79638-12.51446.78,0-31.49414-78.21509-21.929-115.75836,0,0,10.88819-13.41309,7.03833,30.83673,1.86548,2.46295-.66162,11.39941,4.1211,20.78522,0-1.56427,7.97119-74.02143,8.76831-86.28626,1.594.49927-3.9856-6.00757-8.76831-10.7005,1.59423,1.56433-6.37671-3.1286-1.59424-6.2572,0,0,15.94214,6.2572,17.53637,3.1286l12.75367-31.286s0-6.25727-6.37671-10.95014l22.31885,7.82154s-23.91309-25.02887-47.82642-21.90027c-9.56519,1.56433-15.94189-7.82153-15.94189-7.82153s-11.15967-15.643,4.78247-14.07868c15.94213,1.56427,41.44946,7.82147,41.44946,7.82147s82.89917,78.21515,105.21826,137.65863C4802.31732,660.74023,4854.92621,731.13385,4789.56341,768.67712Zm149.05518-193.05926-.55615,127.1557-71.54029,82.38257V576.3609h-97.948l-49.75025-59.84363h347.39624l-52.26758,59.10059Z" transform="translate(0)"/><rect x="5220" y="2" width="1024" height="1024"/><path class="cls-9" d="M5925.257,519.56713s22.60638-39.76613,17.60638-95.76613-12-66-12-66,43.1661,78.29839,12.722,161.76613C5943.41929,520.26874,5925.257,519.56713,5925.257,519.56713Z" transform="translate(0)"/><path class="cls-9" d="M5931.57663,358.27386l7.042,17.52714-16.85106,20.97848a70.38844,70.38844,0,0,1-3.40426-21.47848l-2,24-25,27,2-28,10-8-9.17021,1.98643s4.17021-18.98643,15.17021-28.98643C5908.36335,364.301,5931.57663,358.27386,5931.57663,358.27386Z" transform="translate(0)"/><path class="cls-9" d="M5806.498,322.14953l5.03555,129.04561-17.16532,15.12049-37.45173-102.04249-62.51236,47.37722,8.4609,40.92027-12.37531,10.969-18.79345-47.3546-52.84595-17.37515,12.67956-10.70757,46.18824,8.27608L5732.62,342.15147l-114.85757-35.0532,17.467-14.849,138.03448,7.696c111.95529-111.98551,129.19539-82.79128,129.19539-82.79128h0C5904.34027,220.32917,5912.61017,240.21409,5806.498,322.14953Z" transform="translate(0)"/><path class="cls-9" d="M5931.29719,358.2993l-7.95328,17.1329-26.82766,2.08132a70.38867,70.38867,0,0,1,13.32392-17.18685L5890.97831,375.301l-36.79579.26466,21.77728-17.713,12.67752,1.81121-7.72637-5.32371s16.69357-9.95992,31.51346-8.7892C5911.01089,345.50678,5931.29719,358.2993,5931.29719,358.2993Z" transform="translate(0)"/><path class="cls-9" d="M5929.6825,360.801s10.68085-13.5,8.68085-36.5c0-1-6,8-6,8s2-20-10-30c-1,0,0,9.89361,0,9.89361s-5-9.89361-24-10.89361c-1,0,8,11,8,22,0,0,13-3,17,9,0,0-7-5-15-4,0,0,9.17194,8.21276,10.086,18.10638C5918.27738,346.19461,5929.6825,360.801,5929.6825,360.801Z" transform="translate(0)"/><path class="cls-9" d="M5923.8408,357.3096s16.47538-15.52273,38.4721-16.59244c0,0-10.66979,4.0194-14.18274,9.37282,0,0,13.73366-8.0161,18.57914-7.62353-.45262-.26727,11.33941-1.22421,17.68144,10.73323.47516.95963-9.19206-3.65321-14.0761-2.18824l14.65391,8.19242s7.22919,10.83729,6.27067,21.97647c.09387.99558-26.01612-9.60008-26.01612-9.60008s4.14338-7.05331-.31352-12.84388c.27127.61042-.4375,4.87921-2.147,8.05372C5961.86084,367.87955,5941.61052,352.52783,5923.8408,357.3096Z" transform="translate(0)"/><circle class="cls-9" cx="5935.36335" cy="359.301" r="4"/><ellipse class="cls-9" cx="5935.36335" cy="364.801" rx="4" ry="3.5"/><circle class="cls-9" cx="5943.36335" cy="358.301" r="5"/><path class="cls-9" d="M6072.766,524.04019H5504.37621s-103.01451-20.25969-64.31238-132.12985c2.40426,2.25969-1.51064,99.12985,76.59574,100.12985S6072.766,524.04019,6072.766,524.04019Z" transform="translate(0)"/><rect x="6264" y="1088" width="1024" height="1024"/><circle class="cls-10" cx="6790" cy="1684" r="372.5"/><rect x="6339" y="1451" width="868" height="654"/><polygon class="cls-9" points="6809.237 1557.235 7162.633 1557.235 7110.365 1616.336 7035.031 1616.336 7034.475 1743.492 6962.935 1825.874 6962.935 1617.079 6868.987 1617.079 6809.237 1557.235"/><path class="cls-9" d="M6743.88867,1389.6748l-48.29,36.59864,8.36524,40.459-25.877,22.93457-21.97168-55.36523-64.14843-21.09082,28.21679-23.83106,45.75977,8.19922,40.84473-40.34277-116.166-35.45215,32.749-27.83887,137.61426,7.67285c57.46289-57.07519,99.00977-86.01074,123.51172-86.01074,11.71191,0,16.168,6.541,16.94238,7.85254,4.583,7.73828,1.9375,18.74707-7.86718,32.71094-14.08594,20.05957-43.2334,47.34472-86.66993,81.13769l5.02149,128.69336-30.24317,26.6416Z" transform="translate(0)"/><path d="M6884.49658,1224.60754c7.16846-.00012,9.19287,3.42884,9.19287,3.42884,1.88086,3.17517,10.15088,23.06006-95.96142,104.99548l5.03564,129.04565-17.165,15.12049L6748.147,1375.15552l-62.51269,47.37719,8.46093,40.92029-12.375,10.969-18.79345-47.35462-52.84619-17.37512,12.67968-10.70764,46.188,8.27612,54.90186-54.22693-114.85742-35.05322,17.46679-14.84888,138.03467,7.69593c73.58691-73.60669,106.2544-86.21985,120.00244-86.2201m0-18h0c-12.73437.00025-28.2207,6.01807-47.34326,18.39746-21.82471,14.12842-48.59961,36.78711-79.65723,67.40442l-130.03466-7.24987-7.18116-.40027-5.47949,4.65832-17.4668,14.84888-25.08007,21.32141,31.48437,9.60877,85.98731,26.2423-26.7876,26.45813-37.00293-6.63037-8.32568-1.49182-6.46241,5.4574-12.67968,10.70764-24.61719,20.78821,30.6084,10.0636,44.84472,14.74438,15.68653,39.52576,9.4663,23.85242,19.20411-17.02222,12.375-10.969,7.79687-6.91126-2.10937-10.20361-6.16065-29.79309,34.06885-25.82007,29.06982,79.20483,9.06153,24.689,19.73437-17.384,17.165-15.12048,6.42188-5.657-.3335-8.55164-4.67529-119.81213c42.14306-33.047,70.67236-60.0127,84.8623-80.22046,6.30811-8.98315,9.97608-16.84351,11.21289-24.03015a26.79544,26.79544,0,0,0-2.97363-18.45069c-1.68945-2.86-8.49658-12.25476-24.67969-12.25476Z" transform="translate(0)"/><polygon class="cls-9" points="6431.133 1557.235 6655.713 1825.874 6756.633 1825.874 6529.185 1557.235 6431.133 1557.235"/><polygon class="cls-9" points="6395.955 1841.874 6634.492 1539.235 6791.87 1539.235 6555.258 1841.874 6395.955 1841.874"/><path d="M6757,1556.23535l-210.03076,268.6388H6431l211.73877-268.6388H6757m69.74023-34H6626.24561l-10.20948,12.95325-211.73877,268.63879-43.3872,55.04676h202.63476l10.20947-13.05835,210.03077-268.63892,42.95507-54.94153Z" transform="translate(0)"/><path class="cls-11" d="M6806.73993,1575.83015s80.76225,74.21922,102.50594,130.62583c0,1.48438,51.253,68.28168-12.425,103.90691,1.55312-1.48439-89.28789,43.04715-105.9922-11.87508.76,0-30.68238-74.21922-21.36366-109.84445,0,0,10.60748-12.7278,6.85686,29.26133,1.81748,2.33711-.64438,10.817,4.015,19.72336,0-1.48438,7.7656-70.23981,8.54216-81.878,1.55312.47374-3.8828-5.70067-8.54216-10.15382,1.55312,1.48438-6.21248-2.96877-1.55312-5.93754,0,0,15.5312,5.93754,17.08432,2.96877l12.425-29.68769s0-5.93754-6.21248-10.39069l21.74368,7.42192s-23.2968-23.75015-46.5936-20.78138c-9.31872,1.48438-15.5312-7.42192-15.5312-7.42192s-10.87185-14.84385,4.65936-13.35946S6806.73993,1575.83015,6806.73993,1575.83015Z" transform="translate(0)"/><polygon class="cls-9" points="7124.17 1474.2 7124.764 1466.669 7137.743 1467.18 7137.743 1474.2 7124.17 1474.2"/><path d="M7131.24365,1467.17993v.52h-.0415l.0415-.52m-12.959-1.03418-.04151.52L7117.12354,1480.7h27.07861l.0415-13v-.52l-25.959-1.03418Z" transform="translate(0)"/><path class="cls-9" d="M7061.05859,1543.08105c-5.77246,0-14.05371-.30761-14.40332-.32031l-20.89355-.78027,10.57812-18.03516c.19434-.33593,21.19825-37.31933,16.501-88.29883q-.85986-9.33984-1.85644-17.58593l-11.65918,14.05859-1.46485-3.94824-40.75586,42.64453,3.84082-52.085-2.38574.501,3.48242-15.38379.09766-1.31739.24414-.18945.1084-.48144-6.585.48632,1.96972-3.74707-60.51465.42969,42.38086-33.3877-2.042-1.36328,14.2002-8.21484.77832-.6123.22656.03125,2.17969-1.26172a90.786,90.786,0,0,1,19.6416-8.10938l.11035-3.4375-14.69922-12.75,13.60059-1.61621a54.83821,54.83821,0,0,0-3.91992-7.44531c-1.65723-2.73438-5.10547-8.42285-1.42188-14.96192l3.585-6.36621,7.69238-.0332.31836.0166a56.85534,56.85534,0,0,1,16.88282,3.26856,12.69539,12.69539,0,0,1,7.25293-2.28516h4.416l3.43653,2.77441a39.18632,39.18632,0,0,1,12.59375,19.14844h8.51855l.04785,12.01465q.249,3.0249.26172,6.00391a68.69525,68.69525,0,0,1,11.36719-1.50782l81.89453-3.88867-50.417,18.40625a35.99277,35.99277,0,0,1,2.87109,4.44922l.13965.26172,3.22363,6.23926-1.22754,2.05175c2.79395,5.07129,7.06641,14.68555,6.50879,25.27735l.416,4.49121-3.72949,4.11328a12.69361,12.69361,0,0,1-9.374,4.11133c-2.416,0-4.50293,0-31.28418-10.5332l-7.56836-2.97657c11.14649,31.63184,23.05078,86.39746,1.5625,143.61231-1.11328,3.0791-4.1914,7.98926-12.52343,8.44531C7064.19629,1543.05273,7062.82129,1543.08105,7061.05859,1543.08105Z" transform="translate(0)"/><path d="M7019.35693,1312c19.61084,1,24.77149,10.9,24.77149,10.9s-1.03174-9.9,0-9.9c12.38623,10,10.32178,30,10.32178,30s5.55761-8.07764,6.14306-8.07764c.03272,0,.04981.02491.04981.07764a58.63093,58.63093,0,0,1-2.88965,24.70007c7.02881-3.89,16.64844-7.76,27.60986-8.28,0,0-11.01269,4.02-14.63574,9.37,0,0,13.50537-7.63379,18.80517-7.63379q.19336,0,.37208.01379c-.09278-.05407.32177-.13586,1.09619-.13586A19.99339,19.99339,0,0,1,7108.15332,1363.9c.04736.0918-.00146.13282-.13232.13282-1.04786,0-7.3711-2.61109-12.05616-2.61109a8.51238,8.51238,0,0,0-2.34423.28833l15.13183,8.19995s7.4624,10.83,6.47119,21.9701c.0044.045-.04638.06665-.147.06665-2.13281,0-26.70947-9.66675-26.70947-9.66675s4.2832-7.05-.31983-12.84c.27832.61-.4541,4.88-2.21924,8.04993a.2083.2083,0,0,1-.165.055c-1.1377,0-7.08741-3.80151-15.01807-6.81506a5.22027,5.22027,0,0,1-9.2793.8,4.11663,4.11663,0,0,1-1.01123,1.41,3.24533,3.24533,0,0,1,1.3208,2.55994,3.7515,3.7515,0,0,1-3.64306,3.47c10.72412,24.03,32.5542,86.09009,8.00927,151.3-.05859.23328-2.18066.311-4.98339.311-5.60547,0-13.936-.311-13.936-.311s23.32666-39.77,18.16553-95.77c-1.9502-21.17993-4.20069-35.78-6.23389-45.75L7043.52,1407.48a68.44628,68.44628,0,0,1-3.52-20.96V1386l-.0415.52-2.02295,23.48-25.80371,27,2.06445-28,10.32129-8-9.46485,1.99a75.08418,75.08418,0,0,1,5.51172-15l-3.10644.23a70.45545,70.45545,0,0,1,13.748-17.18994l-19.4663,14.97-37.9834.27,22.48047-17.71,13.08789,1.81006-7.97852-5.33008s15.35889-8.88562,29.95264-8.88562q1.28613,0,2.56006.09558c-.82618,0,6.28564,4.54,12.14843,8.20007-2.9414-3.64-5.91406-7.33-5.91406-7.34-.93945-9.89014-10.415-18.11011-10.415-18.11011a18.4688,18.4688,0,0,1,2.22168-.1322A26.00122,26.00122,0,0,1,7045.16064,1343c-2.75195-7.99951-9.6333-9.33313-13.91455-9.33337a18.34723,18.34723,0,0,0-3.63183.33337c0-11-9.28955-22-8.25733-22m.63721-25h-.63721a25.09738,25.09738,0,0,0-24.38037,31.021l-26.86572,3.25439,24.68164,19.99695c-.9248.46558-1.72363.88647-2.38281,1.2439l-1.28662-.17786-4.25733,3.35376-30.80713,17.82312,4.42823,2.95825-.20118.15833-57.31982,45.15625,72.96826-.51868,3.16992-.02258-2.75195,5.23315,12.21826-.90466-4.50488,19.89685,5.19141-1.09155-.05762.78112-5.12158,69.4701,48.12793-50.35913,2.88672-3.021,2.0415,5.50232,5.88867-7.10059c.23828,38.98572-14.6582,66.50708-15.50391,68.03321L7003.667,1553.9303l42.522,1.32226c.35938.01343,8.86622.32849,14.86963.32849,2.02,0,3.57276-.03344,4.88623-.10534a34.53377,34.53377,0,0,0,3.63233-.37195,25.41148,25.41148,0,0,0,19.86133-16.02722l.00048.00012c17.94336-47.67065,14.11963-93.5957,5.96-127.33508,11.79687,4.39074,15.07177,5.20508,19.67773,5.20508a25.22332,25.22332,0,0,0,18.61328-8.19227l7.437-8.16-.83984-9.165c.397-12.12182-3.814-22.81531-7.21045-29.38354q-.03442-.4552-.08447-.90918l121.563-42.8523-170.37647,8.16382-.03516.00171a25.19642,25.19642,0,0,0-9.19677-11.99207,50.169,50.169,0,0,0-15.11377-20.90954L7052.96094,1288h-8.83252a25.11656,25.11656,0,0,0-8.17676,1.37036,73.41439,73.41439,0,0,0-15.32178-2.33789l-.63574-.03247Z" transform="translate(0)"/><path class="cls-9" d="M7044.74468,1537.58111h-575.234s228.25532-19.40026,287.12234-14.24068,146.40957-.83633,146.40957-.83633S6977.98936,1511.66222,7044.74468,1537.58111Z" transform="translate(0)"/><path class="cls-9" d="M6583.9873,1536c.002-.16724.0127-.33228.0127-.5a48.5,48.5,0,0,0-97,0c0,.16772.01074.33276.0127.5Z" transform="translate(0)"/><rect x="6302" width="1024" height="1024"/><polygon class="cls-9" points="6826.486 392.255 7179.883 392.255 7127.615 451.356 7052.281 451.356 7051.725 578.511 6980.185 660.894 6980.185 452.099 6886.237 452.099 6826.486 392.255"/><polygon class="cls-9" points="6448.383 392.255 6672.963 660.894 6773.883 660.894 6546.435 392.255 6448.383 392.255"/><polygon class="cls-9" points="6413.205 676.894 6651.742 374.255 6809.12 374.255 6572.507 676.894 6413.205 676.894"/><path d="M6774.24951,391.2551,6564.21924,659.894H6448.24951L6659.98828,391.2551h114.26123m69.74024-34H6643.49512l-10.20948,12.95324L6421.54688,638.84723,6378.15967,693.894h202.63525l10.20947-13.05841,210.03028-268.63885,42.95508-54.94162Z" transform="translate(0)"/><path class="cls-11" d="M6823.98964,410.84987s80.76225,74.21922,102.50594,130.62583c0,1.48438,51.253,68.28168-12.425,103.90691,1.55312-1.48439-89.28789,43.04715-105.99219-11.87508.76,0-30.68239-74.21922-21.36366-109.84445,0,0,10.60748-12.7278,6.85686,29.26133,1.81748,2.33711-.64438,10.817,4.015,19.72336,0-1.48438,7.7656-70.23981,8.54216-81.878,1.55312.47374-3.8828-5.70067-8.54216-10.15382,1.55312,1.48438-6.21248-2.96877-1.55312-5.93754,0,0,15.5312,5.93754,17.08432,2.96877l12.425-29.68769s0-5.93754-6.21248-10.39069l21.74368,7.42192s-23.2968-23.75015-46.5936-20.78138c-9.31872,1.48438-15.5312-7.42192-15.5312-7.42192s-10.87185-14.84385,4.65936-13.35946S6823.98964,410.84987,6823.98964,410.84987Z" transform="translate(0)"/><rect x="4176" y="1088" width="1024" height="1024"/><path class="cls-9" d="M4646.89844,1476.37988l-48.29,36.59864,8.36426,40.458-25.875,22.9375-21.97266-55.36718-64.15039-21.09278,28.21973-23.8291,45.75878,8.19922,40.84473-40.34277-116.166-35.45215,32.748-27.83985,137.61524,7.67286c57.46289-57.0752,99.00976-86.00977,123.51074-86.00977,11.71289,0,16.16894,6.541,16.94336,7.85254,4.583,7.73633,1.93848,18.74609-7.86719,32.71094-14.08594,20.05859-43.2334,47.34472-86.66992,81.13672l5.02148,128.69433-30.24316,26.64063Z" transform="translate(0)"/><path d="M4787.50635,1311.31226c7.16845-.00013,9.19287,3.42883,9.19287,3.42883,1.88086,3.17517,10.15088,23.06006-95.96143,104.99548l5.03565,129.04566-17.165,15.12048-37.45215-102.04248-62.51221,47.3772,8.46094,40.92028-12.37549,10.969-18.79345-47.35462-52.84571-17.37512,12.67969-10.70764,46.188,8.27612,54.90185-54.22692-114.85742-35.05323,17.4668-14.84887,138.03467,7.69592c73.58691-73.60669,106.25439-86.21985,120.00244-86.22009m0-18h0c-12.73438.00012-28.22071,6.01806-47.34326,18.39746-21.82471,14.12829-48.59961,36.78723-79.65723,67.40454l-130.03467-7.24988-7.18066-.40039-5.48,4.65832-17.4668,14.84888-25.08057,21.32129,31.48487,9.60889,85.9873,26.24231-26.7876,26.45813-37.00293-6.63025-8.32568-1.49182-6.4624,5.45727-12.67969,10.70764-24.61719,20.78809,30.6084,10.06372,44.84424,14.74438,15.68652,39.52564,9.46582,23.85193,19.20411-17.02136,12.37548-10.969,7.79737-6.91138-2.10938-10.20373-6.16064-29.79309,34.06884-25.82007,29.06983,79.20483,9.06152,24.68885,19.73438-17.38391,17.165-15.12049,6.42187-5.657-.33349-8.55176-4.6753-119.81189c42.14307-33.04712,70.67237-60.01269,84.86231-80.22058,6.3081-8.98315,9.97607-16.84338,11.21289-24.03a26.79573,26.79573,0,0,0-2.97363-18.4508c-1.68946-2.85987-8.49659-12.25476-24.67969-12.25476Z" transform="translate(0)"/><polygon class="cls-9" points="4727.657 1540.851 5081.053 1540.851 5028.785 1599.951 4953.451 1599.951 4952.895 1727.107 4881.355 1809.49 4881.355 1600.694 4787.407 1600.694 4727.657 1540.851"/><polygon class="cls-9" points="4349.553 1540.851 4574.133 1809.49 4675.053 1809.49 4447.605 1540.851 4349.553 1540.851"/><polygon class="cls-9" points="4314.375 1825.489 4552.912 1522.851 4710.29 1522.851 4473.678 1825.489 4314.375 1825.489"/><path d="M4675.41992,1539.85083l-210.03076,268.63879H4349.41992l211.73877-268.63879h114.26123m69.74024-34H4544.66553l-10.20948,12.95325-211.73876,268.63879-43.38721,55.04675h202.63476l10.20948-13.05835,210.03076-268.63891,42.95508-54.94153Z" transform="translate(0)"/><path class="cls-11" d="M4725.15985,1559.44561s80.76226,74.21922,102.50594,130.62583c0,1.48439,51.253,68.28169-12.425,103.90691,1.55312-1.48438-89.28789,43.04715-105.9922-11.87507.76,0-30.68238-74.21923-21.36366-109.84445,0,0,10.60748-12.72781,6.85686,29.26132,1.81748,2.33712-.64438,10.81706,4.015,19.72336,0-1.48438,7.7656-70.2398,8.54216-81.878,1.55312.47374-3.8828-5.70067-8.54216-10.15382,1.55312,1.48438-6.21248-2.96877-1.55312-5.93754,0,0,15.5312,5.93754,17.08432,2.96877l12.425-29.68769s0-5.93754-6.21248-10.39069l21.74369,7.42192s-23.29681-23.75015-46.59361-20.78138c-9.31872,1.48439-15.5312-7.42192-15.5312-7.42192s-10.87184-14.84384,4.65936-13.35946S4725.15985,1559.44561,4725.15985,1559.44561Z" transform="translate(0)"/><rect x="3134" y="1088" width="1024" height="1024"/><path d="M3696.334,1737.28711c-59.28613,0-115.0332-22.61523-156.97265-63.67969-41.99024-41.11426-65.11524-95.793-65.11524-153.96387s23.125-112.8496,65.11524-153.96386C3581.30078,1324.61523,3637.04785,1302,3696.334,1302s115.03321,22.61523,156.97266,63.67969c41.99024,41.11426,65.11524,95.793,65.11524,153.96386s-23.125,112.84961-65.11524,153.96387C3811.36719,1714.67188,3755.62012,1737.28711,3696.334,1737.28711Z" transform="translate(0)"/><path class="cls-9" d="M3696.33423,1311c117.68506,0,213.08765,93.413,213.08765,208.64368,0,115.23059-95.40259,208.64355-213.08765,208.64355s-213.08765-93.413-213.08765-208.64355c0-115.23072,95.40259-208.64368,213.08765-208.64368m0-18a233.56461,233.56461,0,0,0-89.83057,17.766,230.60539,230.60539,0,0,0-73.43823,48.48291,225.67672,225.67672,0,0,0-49.59741,72.04321,223.30862,223.30862,0,0,0,0,176.703,225.6749,225.6749,0,0,0,49.59741,72.04309,230.60573,230.60573,0,0,0,73.43823,48.483,235.98912,235.98912,0,0,0,179.66113,0,230.60589,230.60589,0,0,0,73.43824-48.483,225.6749,225.6749,0,0,0,49.59741-72.04309,223.30862,223.30862,0,0,0,0-176.703,225.67672,225.67672,0,0,0-49.59741-72.04321,230.60554,230.60554,0,0,0-73.43824-48.48291A233.56453,233.56453,0,0,0,3696.33423,1293Z" transform="translate(0)"/><path class="cls-9" d="M3698.2666,1587.94922l-78.59472,58.32422,12.46582,59.03222-31.88672,27.67579-31.05762-76.624-90.10742-29.00976,34.68847-28.68262,68.16114,11.958,67.17578-64.96582-171.90039-51.36817,41.55176-34.58789,204.55273,11.167c84.02637-81.8955,146.80273-125.1582,181.6543-125.1582,14.96875,0,20.418,7.77832,21.35839,9.33789,14.98438,24.7666-32.45117,79.1416-141.02343,161.6416l7.46386,187.27246-38.55175,33.251Z" transform="translate(0)"/><path d="M3904.97046,1354.70972c10.64453-.00013,13.65088,4.98535,13.65088,4.98535,2.79321,4.61645,15.07348,33.52844-142.49585,152.65942l7.47729,187.62757-25.48925,21.98461-55.61329-148.366-92.82666,68.88464,12.564,59.49658-18.37647,15.94849-27.907-68.85181-78.47265-25.26281,18.82836-15.56836,68.58619,12.03308,81.52563-78.84387L3495.866,1490.47058l25.93725-21.58984,204.97168,11.18969c109.27149-107.02136,157.78076-125.36047,178.19556-125.36071m.00024-18h-.00024c-17.11157.00024-38.50855,8.2904-65.41309,25.34436-32.563,20.64038-72.80444,54.13366-119.68945,99.61255l-197.0835-10.759-7.06152-.3855-5.4353,4.5243-25.93726,21.58984-25.79516,21.47144,32.15722,9.60925,141.08863,42.16077-52.82666,51.089-59.5542-10.44836-8.18018-1.43518-6.40039,5.29224-18.82837,15.56836-25.32178,20.93737,31.27613,10.06873,70.46606,22.6853,24.74756,61.05676,9.46,23.3396,19.02-16.50683,18.37646-15.94837,8.00293-6.94555-2.18945-10.36792-10.17871-48.20178,64.36377-47.76307,47.22461,125.98645,9.06128,24.17444,19.5498-16.86181,25.48926-21.98462,6.5752-5.671-.34595-8.67615-7.10376-178.25513c63.75513-48.70837,106.68091-88.19629,127.6521-117.43823,8.65478-12.06824,13.6543-22.44141,15.28442-31.71228,1.41382-8.04187.23828-15.47058-3.39941-21.48279-1.925-3.19079-9.74561-13.66711-29.051-13.66711Z" transform="translate(0)"/><polygon class="cls-9" points="3409 1752.853 3578.117 1933 3636.794 1933 3465.517 1752.853 3409 1752.853"/><polygon class="cls-9" points="3372.657 1949.329 3562.196 1735.183 3669.347 1735.183 3481.335 1949.329 3372.657 1949.329"/><path d="M3631.79883,1752.18237l-158.16089,180.1471H3410.406l159.447-180.1471h61.9458m75.09472-34H3554.54126l-10.14819,11.4657-159.447,180.147-50.03808,56.53443h154.124l10.156-11.56812,158.16089-180.14709,49.54467-56.43189Z" transform="translate(0)"/><rect x="2088" y="1088" width="1024" height="1024"/><path class="cls-12" d="M3689.02392,1763.96035s51.52939,45.76025,65.40269,80.538c0,.9152,32.70135,42.09943-7.9276,64.06436.99095-.91521-56.96908,26.541-67.62706-7.32164.48493,0-19.57653-45.76026-13.63083-67.72518,0,0,6.768-7.8474,4.37493,18.04122,1.15963,1.441-.41113,6.66932,2.56172,12.16055,0-.91521,4.95475-43.30673,5.45022-50.48233.99095.29209-2.47737-3.51478-5.45022-6.26039.991.9152-3.9638-1.83041-.99095-3.66082,0,0,9.9095,3.66082,10.90045,1.83041l7.9276-18.3041a8.445,8.445,0,0,0-3.9638-6.40644l13.87329,4.576s-14.86424-14.64329-29.72849-12.81288c-5.9457.91521-9.9095-4.576-9.9095-4.576s-6.93665-9.152,2.97285-8.23685S3689.02392,1763.96035,3689.02392,1763.96035Z" transform="translate(0)"/><polygon class="cls-9" points="3728.456 1752.66 3945 1752.66 3912.973 1792.335 3866.812 1792.335 3866.471 1877.696 3822.635 1933 3822.635 1792.833 3765.068 1792.833 3728.456 1752.66"/><path d="M2623.12305,1773.87012a296.74389,296.74389,0,1,1,209.35156-87.13184A293.416,293.416,0,0,1,2623.12305,1773.87012Z" transform="translate(0)"/><path class="cls-9" d="M2623.1228,1188c158.532,0,287.04737,129.13684,287.04737,288.43518s-128.51538,288.43518-287.04737,288.43518c-158.53174,0-287.04712-129.13684-287.04712-288.43518S2464.59106,1188,2623.1228,1188m0-18a303.45861,303.45861,0,0,0-215.73144,89.78357,306.98721,306.98721,0,0,0,96.959,498.986,303.90467,303.90467,0,0,0,334.50415-65.68274,306.98724,306.98724,0,0,0-96.95923-498.98608A301.97,301.97,0,0,0,2623.1228,1170Z" transform="translate(0)"/><path class="cls-9" d="M2580.98633,1611.70508l-87.126,66.35058,16.6709,81.01856-60.749,54.10742-46.09082-116.69531-135.65235-44.81641,66.6084-56.52148,91.24414,16.42773,72.5127-71.96679-233.21875-71.51954,75.4873-64.47949,275.00293,15.40625c63.14746-62.86328,117.34863-109.16015,161.20215-137.6875,36.25879-23.58594,65.11719-35.05176,88.22266-35.05176,20.69824,0,33.75976,9.67676,39.081,18.7334,4.78906,8.124,6.27734,17.79688,4.40625,28.71973-2.16211,12.61914-8.833,26.79687-20.39551,43.3418-28.25,40.4248-86.15527,95.06445-172.19824,162.499l10.03613,258.4541-69.2207,61.27051Z" transform="translate(0)"/><path d="M2865.09985,1270.27747c14.33911-.00025,18.38892,6.89184,18.38892,6.89184,3.76269,6.38184,20.30542,46.35071-191.9541,211.041l10.07275,259.38183-34.33618,30.39222-74.91577-205.1056-125.04541,95.22815,16.92456,82.24988L2459.48,1772.40454l-37.593-95.18274-105.70923-34.92407,25.36329-21.52222,92.3916,16.63489,109.82177-108.99622-229.75293-70.45678,34.9397-29.84668,276.11426,15.469c147.198-147.94934,212.54395-173.30188,240.04443-173.30224m.00074-48.00013h-.00122c-27.896.00049-61.03418,12.73584-101.3086,38.93421-43.43213,28.25232-96.32812,73.02905-157.42529,133.246l-254.73926-14.27161-19.2229-1.0769-14.63892,12.505-34.93969,29.84656-66.45044,56.76441,83.5542,25.623,153.12475,46.95777-35.2019,34.93737-67.80493-12.208-22.29175-4.01355-17.27026,14.6549-25.36329,21.52222-65.22,55.343,81.219,26.833,84.37573,27.876,29.33984,74.28626,25.24659,63.92236,51.32251-45.71057,24.75463-22.04785,20.66846-18.40857-5.57837-27.10974-10.83984-52.67957,49.20654-37.47314,52.56836,143.92248,24.16309,66.15442,52.73755-46.67981,34.33618-30.39221,17.03247-15.076-.88282-22.72913-9.12084-234.87378c82.63989-65.46813,138.91479-119.25378,167.41479-160.03662,13.63184-19.50683,21.606-36.85522,24.37817-53.03686,2.81641-16.43958.25513-31.9978-7.40649-44.99243a58.61859,58.61859,0,0,0-20.042-19.96631c-11.39209-6.998-24.74707-10.54627-39.69409-10.54627Z" transform="translate(0)"/><rect class="cls-9" x="2150.0371" y="1855.69389" width="918.9629" height="18"/><text class="cls-13" transform="translate(2150 1969.6543) scale(0.96944 1)">EXCELLENT CY<tspan class="cls-14" x="506.22815" y="0">L</tspan><tspan x="542.83011" y="0">ONE TOURS</tspan></text><path class="cls-1" d="M5729.16917,1787.24872A275.73116,275.73116,0,1,1,5924.22,1706.53,274.16877,274.16877,0,0,1,5729.16917,1787.24872Z" transform="translate(0)"/><path d="M5729.16966,1253.527c142.6831,0,258.35107,115.56018,258.35107,258.11072s-115.668,258.11059-258.35107,258.11059c-142.6836,0-258.35108-115.56006-258.35108-258.11059S5586.48606,1253.527,5729.16966,1253.527m0-35a292.66227,292.66227,0,1,0,114.18555,23.04395,291.75351,291.75351,0,0,0-114.18555-23.04395Z" transform="translate(0)"/><path d="M5672.51758,1625.05566l-87.126,66.35059,16.67188,81.01953-60.751,54.10742-46.08887-116.69531-135.65234-44.81836L5426.18066,1608.5l91.24414,16.42773,72.51075-71.96582-233.21582-71.51953,75.48437-64.48144,275.00391,15.40625c63.14746-62.86328,117.34765-109.16016,161.20117-137.68653,36.25977-23.58691,65.11719-35.05175,88.22266-35.05175,20.69824,0,33.75878,9.67675,39.081,18.73242,4.78906,8.124,6.27832,17.79687,4.40625,28.71972-2.16211,12.62012-8.833,26.79688-20.39453,43.3418-28.251,40.42578-86.15625,95.06543-172.19922,162.5l10.03809,258.4541-69.22266,61.26856Z" transform="translate(0)"/><path class="cls-15" d="M5956.63184,1283.62842c14.33886-.00012,18.38867,6.892,18.38867,6.892,3.76269,6.38183,20.30566,46.3507-191.95362,211.041l10.07227,259.38184-34.33594,30.39221-74.916-205.10559L5558.8418,1681.458l16.9248,82.24988-24.75488,22.04773-37.59277-95.18274-105.70948-34.92408,25.36328-21.52221,92.39161,16.63488,109.82177-108.99621-229.75293-70.45679,34.93994-29.84668,276.11426,15.469c147.19776-147.94947,212.54346-173.302,240.04444-173.30237m.00048-48h-.00146c-27.896.00049-61.03418,12.73584-101.30859,38.93408-43.43165,28.25244-96.32764,73.02917-157.42481,133.24609L5443.1582,1393.537l-19.22314-1.07691-14.63867,12.505-34.93994,29.84656-66.45069,56.7644,83.55469,25.62305,153.12451,46.95776-35.20215,34.93738-67.80469-12.208-22.2915-4.01355-17.27051,14.65491-25.36328,21.52221-65.21972,55.34327,81.21875,26.83276,84.376,27.876,29.33985,74.28625,25.24609,63.922,51.32275-45.71,24.75489-22.04785,20.66894-18.40857-5.57861-27.11023-10.83985-52.67945,49.20606-37.473,52.56885,143.92261,24.16308,66.15466,52.7378-46.68042,34.33544-30.39221,17.03223-15.07593-.88232-22.729-9.12061-234.87378c82.63965-65.46814,138.91455-119.254,167.41455-160.03662,13.63184-19.50684,21.606-36.85547,24.37793-53.03687,2.81641-16.43982.25537-31.9978-7.40625-44.99243a58.622,58.622,0,0,0-20.04248-19.96655c-11.39209-6.9978-24.74707-10.546-39.69385-10.546Z" transform="translate(0)"/><rect x="5272.56899" y="1830.65509" width="918.9629" height="28.77972"/><text class="cls-16" transform="translate(5272.53174 1950.00536) scale(0.96944 1)">EXCELLENT CY<tspan class="cls-14" x="506.22815" y="0">L</tspan><tspan x="542.83011" y="0">ONE TOURS</tspan></text><rect x="1044" y="1088" width="1024" height="1024"/><path class="cls-9" d="M1548.63978,1254.53238c142.68323,0,258.351,115.5603,258.351,258.11071,0,142.55066-115.66772,258.11072-258.35095,258.11072-142.68335,0-258.35107-115.56006-258.35107-258.11072,0-142.55041,115.66772-258.11071,258.35107-258.11071m0-35a292.66221,292.66221,0,1,0,114.18543,23.04394,291.75328,291.75328,0,0,0-114.18543-23.04394Z" transform="translate(0)"/><path class="cls-9" d="M1553.56715,1648.89749l-87.127,66.35156,16.67187,81.02051-60.751,54.10449-46.08886-116.69433-135.65235-44.81641,66.6084-56.52148,91.24414,16.42773,72.51172-71.96582-233.2168-71.51953,75.48536-64.48047L1588.2566,1456.21c63.14746-62.86328,117.34766-109.16016,161.20215-137.6875,36.25879-23.58594,65.11719-35.05176,88.22168-35.05176,20.69922,0,33.75977,9.67676,39.08106,18.7334,4.78906,8.124,6.27734,17.79687,4.40625,28.71875-2.16114,12.62012-8.833,26.79785-20.39454,43.34277-28.251,40.42578-86.15527,95.06543-172.19921,162.499l10.03808,258.4541-69.22168,61.27051Z" transform="translate(0)"/><path d="M1837.68055,1307.47085c14.33887-.00012,18.38867,6.892,18.38867,6.892,3.76282,6.382,20.30542,46.35083-191.954,211.041l10.07288,259.38171-34.33618,30.39221-74.91589-205.10559-125.04541,95.2284,16.92468,82.24987-24.75464,22.04761-37.59314-95.18262-105.70923-34.92419,25.3634-21.52222,92.39161,16.635,109.82153-108.99646L1286.582,1495.15079l34.9397-29.84644,276.11438,15.469c147.19775-147.94946,212.5437-173.30212,240.04443-173.30249m.00049-48h-.0011c-27.89612.00037-61.0343,12.73572-101.30871,38.93421-43.432,28.25244-96.328,73.02917-157.42505,133.24609l-254.7395-14.27161-19.22278-1.0769-14.6388,12.505-34.93957,29.84631-66.451,56.76428,83.55456,25.62317,153.12513,46.95789-35.202,34.9375-67.80481-12.20826-22.29163-4.01355-17.27038,14.65479-25.36341,21.52222-65.22045,55.343,81.219,26.83313,84.37622,27.87622,29.34,74.28626,25.24646,63.92175,51.32214-45.71,24.75464-22.04761,20.66882-18.40857-5.57837-27.11023-10.83984-52.67919,49.20654-37.47327,52.56824,143.92224,24.16321,66.15442,52.73742-46.67981,34.33619-30.39221,17.03259-15.07593-.88281-22.72925-9.1211-234.87366c82.64014-65.468,138.9148-119.2539,167.41468-160.03649,13.63183-19.50684,21.60607-36.85523,24.37829-53.03687,2.81629-16.43957.25537-31.99744-7.40625-44.99194a58.61349,58.61349,0,0,0-20.04224-19.967c-11.39221-6.99805-24.74719-10.54615-39.69421-10.54615Z" transform="translate(0)"/><rect class="cls-9" x="1096.16473" y="1850.56691" width="918.9629" height="28.77972"/><text class="cls-13" transform="translate(1096.12769 1969.91718) scale(0.96944 1)">EXCELLENT CY<tspan class="cls-14" x="506.22815" y="0">L</tspan><tspan x="542.83011" y="0">ONE TOURS</tspan></text><rect y="1087.82979" width="1024" height="1024"/><path class="cls-9" d="M504.63974,1254.36218c142.68338,0,258.35092,115.56006,258.35092,258.11072,0,142.55042-115.66754,258.11072-258.35092,258.11072-142.68323,0-258.35092-115.5603-258.35092-258.11072,0-142.55066,115.66769-258.11072,258.35092-258.11072m0-35a292.66284,292.66284,0,1,0,114.18539,23.04395,291.75262,291.75262,0,0,0-114.18539-23.04395Z" transform="translate(0)"/><path class="cls-9" d="M463.22363,1625.80273l-62.63623,47.7002,16.50781,80.22559L333.09766,1828.54,281.521,1697.95117l-154.98975-51.20508,93.24512-79.125,90.50342,16.29493,48.416-48.05176-235.45264-72.20508,101.669-86.84961,274.32275,15.36914c61.82178-61.14941,115.18018-106.46289,158.771-134.81933,38.85254-25.27344,70.47559-37.5586,96.6748-37.5586,34.2793,0,48.80762,20.19141,52.44434,26.37988,6.59766,11.18946,8.793,24.75782,6.32031,39.18946-2.55566,14.91992-10.06836,31.1455-22.96679,49.60351-28.4209,40.66895-85.27149,94.75879-169.10938,160.918l10.01563,257.89551-91.752,81.21191Z" transform="translate(0)"/><path d="M754.6806,1259.30054c14.33893-.00012,18.3888,6.892,18.3888,6.892,3.76263,6.38208,20.30529,46.35083-191.95392,211.041l10.07263,259.38184-34.3363,30.39245L481.936,1561.902l-125.04528,95.22839,16.9245,82.24976-24.75449,22.0476-37.59317-95.18261-105.7092-34.9242,25.36316-21.52209,92.39157,16.635L433.33493,1517.4375l-229.75288-70.45679,34.93974-29.84655L514.636,1432.603c147.198-147.94959,212.54394-173.30213,240.04461-173.30249m.00067-78.99988h-.00079c-17.84131.00024-36.34241,3.74841-56.56,11.45923-19.0429,7.26257-39.20977,17.89-61.65265,32.48889-42.77056,27.8219-93.95147,70.64307-152.43716,127.51575l-241.08994-13.50672-31.63737-1.77234-24.09315,20.58094-34.93975,29.84668-109.3671,93.42443,137.51685,42.17164,23.11563,7.08862-23.528,19.965-25.36316,21.5221L47.3031,1662.17041l133.67264,44.1626,70.59866,23.32446,24.00977,60.79053,41.55157,105.20508,84.4679-75.23157,24.75445-22.04773,34.01712-30.29736-9.18106-44.61841L444.284,1689.8761l.22714-.173,38.13562,104.40833,39.76843,108.87927,86.79737-76.82763,34.3363-30.39246,28.03235-24.81262-1.45264-37.40808L661.61639,1514.35c79.17054-63.56336,132.08252-115.02723,161.23932-156.75013,16.30554-23.33264,25.96241-44.77734,29.52265-65.55944,4.06482-23.72608.19085-46.50464-11.20319-65.8805h.00006l-.05206-.08838-.00031-.00061A89.7168,89.7168,0,0,0,810.601,1195.432c-16.11529-9.89893-35.45184-15.13135-55.91974-15.13135Z" transform="translate(0)"/><rect class="cls-9" x="206" y="1850.3967" width="614" height="28.77972"/><text class="cls-17" transform="translate(217.99976 1948.11708) scale(0.96944 1)">EXCELLENT CY<tspan class="cls-18" x="327.2528" y="0">L</tspan><tspan x="350.91539" y="0">ONE TOURS</tspan></text></svg>